<?xml version="1.0" standalone="no"?>
<!DOCTYPE svg PUBLIC "-//W3C//DTD SVG 20010904//EN"
 "http://www.w3.org/TR/2001/REC-SVG-20010904/DTD/svg10.dtd">
<svg version="1.0" xmlns="http://www.w3.org/2000/svg"
 width="186.000000pt" height="186.000000pt" viewBox="0 0 186.000000 186.000000"
 preserveAspectRatio="xMidYMid meet">
<metadata>
Created by potrace 1.11, written by Peter Selinger 2001-2013
</metadata>
<g transform="translate(0.000000,186.000000) scale(0.100000,-0.100000)"
fill="#000000" stroke="none">
<path d="M774 1655 c-165 -40 -285 -150 -324 -295 -18 -66 -15 -186 5 -245 33
-96 84 -149 190 -201 61 -29 208 -74 297 -89 55 -10 140 -48 173 -76 42 -38
65 -96 66 -167 0 -70 -13 -114 -45 -157 -56 -73 -151 -106 -286 -101 -114 5
-167 19 -286 77 -55 27 -103 49 -105 49 -3 0 -5 -45 -5 -100 l0 -99 50 -21
c153 -61 374 -84 524 -55 155 30 266 113 313 233 19 48 23 77 23 177 1 103 -3
128 -22 177 -29 73 -102 148 -183 188 -52 27 -203 74 -278 86 -70 12 -165 52
-198 84 -51 47 -70 130 -49 211 49 189 328 236 584 99 l72 -39 0 98 0 99 -39
15 c-32 13 -92 31 -186 54 -45 11 -243 10 -291 -2z"/>
</g>
</svg>
